<?xml version="1.0" encoding="UTF-8"?> <svg xmlns="http://www.w3.org/2000/svg" id="logo-center" width="219" height="192" viewBox="0 0 219 192"><defs><style> .cls-1 { fill: #ffffff; } .cls-2 { fill: #ffffff; } </style></defs><path id="a3trip" class="cls-1" d="M22.927,128.727L0.392,178.565h12.07l4.715-10.933H37.8l4.68,10.933H54.417L31.882,128.727H22.927Zm10.684,29.131H21.393l6.133-14.219Zm86.268-26.371-10.486,3.524v7.728h-6.35V151.2h6.35v14.036c0,4.22,1.133,7.529,3.368,9.836s5.419,3.493,9.435,3.493a22.771,22.771,0,0,0,2.863-.174,13.958,13.958,0,0,0,2.819-.676l0.772-.27v-8.8l-1.45.387c-0.614.164-1.173,0.289-1.66,0.37a8.835,8.835,0,0,1-1.446.115,5.67,5.67,0,0,1-2.259-.429,2.9,2.9,0,0,1-1.385-1.31,6.1,6.1,0,0,1-.571-2.935V151.2h8.771v-8.458h-8.771V131.487Zm37.513,10.61h0a13.436,13.436,0,0,0-2.006-.144,12.344,12.344,0,0,0-7.493,2.452,10.122,10.122,0,0,0-1.781,1.687l-0.361-3.353H135.663l0.188,1.315a45.614,45.614,0,0,1,.415,4.565c0.064,1.564.1,3.122,0.1,4.634V178.1h10.486V159.079a9.219,9.219,0,0,1,.838-3.99,6.369,6.369,0,0,1,2.389-2.694,7.8,7.8,0,0,1,4.2-1,9.98,9.98,0,0,1,3.875.761l1.567,0.657,0.175-9.959-0.741-.3A8.156,8.156,0,0,0,157.392,142.1Zm9.084,36.006h10.486V142.739H166.476V178.1Zm-0.393-40h11.4V127.748h-11.4V138.1Zm51.279,12.712h0a16.23,16.23,0,0,0-5.6-6.544,14.665,14.665,0,0,0-8.262-2.385,13.92,13.92,0,0,0-7.907,2.257,11.208,11.208,0,0,0-2.329,2.073l-0.383-3.479H182.794l0.187,1.315a45.614,45.614,0,0,1,.415,4.565c0.064,1.564.1,3.122,0.1,4.634v38.991H193.98V175.1a11.12,11.12,0,0,0,1.623,1.281,14.237,14.237,0,0,0,7.894,2.183,15.258,15.258,0,0,0,8.272-2.24,15.439,15.439,0,0,0,5.589-6.355,21.268,21.268,0,0,0,2.018-9.513A21.87,21.87,0,0,0,217.362,150.817Zm-8.6,9.637c0,3.119-.664,5.532-1.973,7.168a7.422,7.422,0,0,1-10.857-.021c-1.293-1.66-1.949-4.108-1.949-7.278,0-3.253.654-5.733,1.945-7.372a6.5,6.5,0,0,1,5.477-2.342,6.336,6.336,0,0,1,5.372,2.432C208.091,154.747,208.759,157.241,208.759,160.454Z"></path><path id="_3" data-name="3" class="cls-2" d="M100.81,117.382a11.845,11.845,0,0,0-3.147-4.311,12.943,12.943,0,0,0-4.56-2.5,17.345,17.345,0,0,0-5.178-.8,24.73,24.73,0,0,0-9.9,1.77,21.465,21.465,0,0,0-6.554,4.287,16.707,16.707,0,0,0-3.719,5.341,14.781,14.781,0,0,0-1.272,4.893,9.114,9.114,0,0,0,.44,3.549,6.374,6.374,0,0,0,1.436,2.353,5.379,5.379,0,0,0,2.053,1.294,7.036,7.036,0,0,0,2.305.389,7.476,7.476,0,0,0,1.932-.284,11.3,11.3,0,0,0,2.056-.711,14.316,14.316,0,0,0,2.511-1.459l1.168-.829H78.943a2.119,2.119,0,0,1-1.635-.585,3.688,3.688,0,0,1-.866-1.484A6.45,6.45,0,0,1,76.1,126.1a9.155,9.155,0,0,1,1.177-4.256,11.664,11.664,0,0,1,2.778-3.288,13.621,13.621,0,0,1,3.59-2.116A9.576,9.576,0,0,1,87.1,115.7a6.088,6.088,0,0,1,4.657,1.676,5.613,5.613,0,0,1,1.39,4.41,20.32,20.32,0,0,1-2.195,8.691,28.6,28.6,0,0,1-5.051,6.951,34.945,34.945,0,0,1-6.558,5.216,56.082,56.082,0,0,1-6.634,3.525l-0.4.176,2.361,6.081,0.458-.241a23.692,23.692,0,0,1,2.876-1.3,13.86,13.86,0,0,1,2.413-.666,11.493,11.493,0,0,1,2.378-.263,4.39,4.39,0,0,1,3.927,1.805,7.977,7.977,0,0,1,1.2,4.831,23.561,23.561,0,0,1-1.08,6.167,25.372,25.372,0,0,1-2.655,5.908,16.956,16.956,0,0,1-3.835,4.392,7.083,7.083,0,0,1-4.433,1.678,6.677,6.677,0,0,1-4.461-1.253,6.416,6.416,0,0,1-1.972-2.935,8.584,8.584,0,0,1-.349-3.419,13,13,0,0,1,.437-2.543l0.2-.6H69.138c-0.743,0-1.68.046-2.788,0.138a19.235,19.235,0,0,0-3.287.56,8.672,8.672,0,0,0-2.855,1.3,3.093,3.093,0,0,0-1.337,2.65,15.988,15.988,0,0,0,.564,3.755,11.18,11.18,0,0,0,2.289,4.37,13.775,13.775,0,0,0,4.738,3.539,18.632,18.632,0,0,0,7.99,1.458,16.873,16.873,0,0,0,8.9-2.436,25.479,25.479,0,0,0,6.813-6.031,29.369,29.369,0,0,0,4.421-7.821,24.357,24.357,0,0,0,1.679-7.848,13.359,13.359,0,0,0-1.006-5.992,10.166,10.166,0,0,0-2.787-3.671,9.946,9.946,0,0,0-3.748-1.863,17.751,17.751,0,0,0-2.206-.419,35.449,35.449,0,0,0,5.52-4.132,36.12,36.12,0,0,0,5.151-5.814,29.065,29.065,0,0,0,3.352-6.2,18.551,18.551,0,0,0,1.313-5.983A14.37,14.37,0,0,0,100.81,117.382Z"></path><path id="icon" class="cls-2" d="M80.215,64.945c1.362-1.012,2.972-2.2,2.972-2.2a9.187,9.187,0,0,1,2.518-1.315,10.824,10.824,0,0,1,3.364-.657,11.476,11.476,0,0,1,3.378.318,10.913,10.913,0,0,1,3.135,1.265,11.712,11.712,0,0,1,4.569,4.913,12.476,12.476,0,0,1,.936,2.666,6.278,6.278,0,0,0-1.436.178A5.755,5.755,0,0,0,96.382,72.3a7.037,7.037,0,0,1,3.4-1.542,6.41,6.41,0,0,1,1.447-.046h0.009a3.234,3.234,0,0,1,.385.044,5.68,5.68,0,0,1,1.712.484,6.288,6.288,0,0,1,2.7,2.294c0.01,0.017.019,0.025,0.028,0.04,0.069,0.1.138,0.218,0.2,0.331a6.881,6.881,0,0,1,.916,3.234,5.671,5.671,0,0,0-.487-3.778,8.9,8.9,0,0,1,9.538-2.7,8.926,8.926,0,0,1,5.312,4.767,8.735,8.735,0,0,1,.655,2.144c0.047,0.258.087,0.528,0.109,0.789a9.3,9.3,0,0,1-.667,4.393,8.613,8.613,0,0,0,1.115-3.692c0.012-.273.023-0.546,0.008-0.815a9.688,9.688,0,0,1,2.038-.189,9.1,9.1,0,0,1,3.557.745,5.635,5.635,0,0,0-1.032,2.558,6.169,6.169,0,0,1,1.447-2.372,3.151,3.151,0,0,1,.5-0.475,5.914,5.914,0,0,1,9.38,2.3,6.082,6.082,0,0,1,.4,1.657,2.009,2.009,0,0,0,.04-0.345,6.233,6.233,0,0,0-2.51-4.921,6.045,6.045,0,0,0-.978-0.516,1.35,1.35,0,0,0-.157-0.055,0.164,0.164,0,0,1,.05-0.318h0.025a43.084,43.084,0,0,0,17.856-4.277c-0.715.986-1.482,1.943-2.28,2.858a43.938,43.938,0,0,1-7.263,6.655,42.718,42.718,0,0,1-4.656,2.953l-0.419.206a0.505,0.505,0,0,1-.072.061c-1.013.542-2.05,1.031-3.1,1.492l-0.252.124-0.023-.011a44.888,44.888,0,0,1-7.62,2.539,44.175,44.175,0,0,1-17.134.539,45.334,45.334,0,0,1-15.607-5.623A44.479,44.479,0,0,1,80.9,70.751a0.879,0.879,0,0,1-.115-0.16c-0.491-.7-0.9-1.333-1.227-1.882a0.1,0.1,0,0,1-.021-0.041c-0.041-.067-0.082-0.131-0.12-0.194h0A2.763,2.763,0,0,1,80.215,64.945ZM66.166,41.067a51.506,51.506,0,0,1,6.874,1.595,5.341,5.341,0,0,1,.547.182c0.614,0.183,1.275.388,1.934,0.593,0.364,0.114.706,0.25,1.07,0.365a30.288,30.288,0,0,0,6.327.843,23.78,23.78,0,0,0,7.784-.887c6.783-2.028,10.9-6.538,19.62-1.617L95.137,52.028l-2.913-1.064L94.557,52.4l-0.009.005c0.113,0.068.25,0.147,0.374,0.219L95,52.677h0c2.043,1.2,5.374,2.946,5.4,2.967a13.328,13.328,0,0,0,10.084.456c5.485-2,7.329.25,7.329,0.25l-6.4,4.236h0.045l-1.32.866,2.139-.82a43.676,43.676,0,0,0,17.367.547,0.122,0.122,0,0,0,.091,0c0.637-.115,1.229-0.251,1.821-0.387l0.273-.069a24.3,24.3,0,0,0,9.081-4.35c0.068-.046.114-0.091,0.183-0.137,5.576-4.145,10.7-11.639,8.694-24.916a37.694,37.694,0,0,1-3.346,11.138,31.342,31.342,0,0,0-1.889-8.474,37.627,37.627,0,0,0-6.077-10.113,38.14,38.14,0,0,0-9.1-7.811,36.8,36.8,0,0,0-40.492,1.276A36.361,36.361,0,0,0,78.5,28.563a37.035,37.035,0,0,0-3.733,8.587l-1.024-.159a44.179,44.179,0,0,1,2.868-9.384A44.879,44.879,0,0,1,85.9,13.851a43.7,43.7,0,0,1,14.157-9.7,45.252,45.252,0,0,1,17.389-3.6,44.232,44.232,0,0,1,27.837,9.84,0.716,0.716,0,0,0,.2.159c0,0.023.046,0.045,0.046,0.067C162.717,25.238,162.467,45.942,157,55.165c-5.3,8.928-19.118,10.819-21.668,11.069a2.5,2.5,0,0,1-.41.046c-12.814,1.093-25.014-2.962-32.548-6.241h-0.022c-4.848-1.754-11.745-4.237-18.368-6.605-3.778-1.367-7.465-2.687-10.629-3.8l-0.2-.069c-2.39-.864-4.461-1.593-6.054-2.164-1.775-.637-2.913-1.025-3.073-1.069C59.02,44.94,56.675,39.7,66.166,41.067Z"></path></svg> 